Coordinates
version=1
nRows=21
nColumns=33
inDegrees=yes

Units are S.I. units (second, meters, Newtons, ...)
Angles are in degrees.

endheader
time	ground_thorax_rot_x	ground_thorax_rot_y	ground_thorax_rot_z	ground_thorax_tx	ground_thorax_ty	ground_thorax_tz	clav_prot_r	clav_elev_r	scapula_abduction_r	scapula_elevation_r	scapula_upward_rot_r	scapula_winging_r	shoulder_elv_r	plane_of_elev_r	axial_rot_r	elbow_flexion_r	pro_sup_r	wrist_flex_r	wrist_dev_r	clav_prot_l	clav_elev_l	scapula_abduction_l	scapula_elevation_l	scapula_upward_rot_l	scapula_winging_l	shoulder_elv_l	plane_of_elev_l	axial_rot_l	elbow_flexion_l	pro_sup_l	wrist_flex_l	wrist_dev_l
      3.86000000	     26.01298811	     34.09667945	     47.87027910	     89.20267051	    775.20337302	    -41.60791221	     12.91308578	     36.34326948	     28.30054990	     45.00000000	    -45.00000000	  -3317.26238491	  -3169.94088214	     22.34598091	    179.99999979	   1804.01723690	   -176.31946219	     12.66312633	     12.79292987	    -15.33339126	    -45.00000000	    -33.08854409	     45.00000000	    -45.00000000	  -2424.75067124	    -94.67083936	    135.55445715	   -126.91573413	    349.62780152	     47.65818285	     11.75409295	    -15.14014142
      3.87000000	     26.25137530	     34.00972380	     47.45722206	     88.74948410	    774.63364359	    -41.71463933	     12.44651184	     36.16677520	     28.27855968	     45.00000000	    -45.00000000	  -3317.25799985	  -3169.89304500	     22.40696266	    179.99999979	   1804.10657850	   -176.29297759	     12.77903972	     12.62283321	    -15.55111640	    -45.00000000	    -33.02312491	     45.00000000	    -45.00000000	  -2424.62106316	    -94.66640597	    135.36583889	   -127.12898042	    349.56542464	     47.54590207	     11.29201859	    -15.10502171
      3.88000000	     26.31305758	     34.14896102	     47.31537912	     88.11911287	    774.10020921	    -41.82159230	     12.80055966	     36.38584999	     28.19093766	     45.00000000	    -45.00000000	  -3317.32976954	  -3169.83383278	     22.35977096	    179.99999979	   1804.21697550	   -176.19268621	     12.67126051	     12.64135513	    -15.42872494	    -45.00000000	    -33.14262240	     45.00000000	    -45.00000000	  -2424.70319243	    -94.60717024	    135.56588001	   -127.06965832	    349.64168312	     47.48501425	     11.78777743	    -15.29637386
      3.89000000	     26.55514439	     34.13928799	     46.95004837	     87.31460073	    773.59637685	    -41.92565051	     12.50948893	     36.21805844	     28.28922725	     45.00000000	    -45.00000000	  -3317.39307125	  -3169.75801582	     22.29136930	    179.99999979	   1804.34624990	   -176.07554104	     12.77541327	     12.47847439	    -15.49656917	    -45.00000000	    -33.11412130	     45.00000000	    -45.00000000	  -2424.55301406	    -94.56921712	    135.38078041	   -127.17402774	    349.56761481	     47.46302190	     11.30539250	    -15.29219114
      3.90000000	     26.72885589	     34.13081698	     46.60264712	     86.33908651	    773.11398522	    -42.01821523	     12.67871265	     36.41066787	     28.07940329	     45.00000000	    -45.00000000	  -3317.42412608	  -3169.61334894	     22.47723979	    179.99999979	   1804.43710910	   -175.89721063	     12.67168433	     12.42764531	    -15.46907208	    -45.00000000	    -33.17891068	     45.00000000	    -45.00000000	  -2424.60092354	    -94.43206583	    135.47888589	   -127.22637904	    349.64972941	     47.52432769	     11.67719690	    -15.47119757
      3.91000000	     27.02261033	     34.05779938	     46.23759168	     85.19564655	    772.64965798	    -42.09992004	     12.47845261	     36.16717757	     28.23032371	     45.00000000	    -45.00000000	  -3317.51089659	  -3169.54599764	     22.39819964	    179.99999979	   1804.50228442	   -175.72426476	     12.82320663	     12.27422411	    -15.45661724	    -45.00000000	    -33.08096033	     45.00000000	    -45.00000000	  -2424.38378458	    -94.47394807	    135.29176999	   -127.35405323	    349.60519310	     47.62193971	     11.00510679	    -15.44192746
      3.92000000	     27.05252140	     34.18683428	     46.12542044	     83.88734525	    772.20084010	    -42.17249118	     12.63767851	     36.37878849	     28.14104188	     45.00000000	    -45.00000000	  -3317.63091626	  -3169.44091525	     22.31432488	    179.99999979	   1804.59122012	   -175.46654878	     12.70438090	     12.27919378	    -15.44099934	    -45.00000000	    -33.32912359	     45.00000000	    -45.00000000	  -2424.44173153	    -94.39369856	    135.57714737	   -127.28812268	    349.75342812	     47.82053478	     11.50152901	    -15.64324191
      3.93000000	     27.35392919	     34.08975771	     45.64840759	     82.41853397	    771.76613183	    -42.23835511	     12.43481728	     36.26877905	     28.14126323	     45.00000000	    -45.00000000	  -3317.68469408	  -3169.37972084	     22.39913540	    179.99999979	   1804.77163408	   -175.21607135	     12.74965513	     12.15386482	    -15.40600619	    -45.00000000	    -33.22646951	     45.00000000	    -45.00000000	  -2424.24932800	    -94.30375155	    135.31180002	   -127.49174593	    349.63834249	     48.03808199	     10.99789314	    -15.71090107
      3.94000000	     27.53522230	     34.06803166	     45.26254873	     80.79355069	    771.34388993	    -42.29987108	     12.58929634	     36.43193179	     27.84923159	     45.00000000	    -45.00000000	  -3317.73633961	  -3169.11850212	     22.60610764	    179.99999979	   1804.74492692	   -174.94122941	     12.65547294	     12.13697567	    -15.46623958	    -45.00000000	    -33.35232681	     45.00000000	    -45.00000000	  -2424.32106594	    -94.17410501	    135.46568719	   -127.60222731	    349.83132781	     48.30468757	     11.42973441	    -15.83638174
      3.95000000	     27.83473271	     33.95910679	     44.92171535	     79.00946574	    770.93227381	    -42.35978367	     12.35036906	     36.18496466	     28.17364932	     45.00000000	    -45.00000000	  -3317.93576180	  -3169.22138926	     22.41184049	    179.99999979	   1804.82775662	   -174.69289677	     12.84920937	     11.98556578	    -15.31666042	    -45.00000000	    -33.17373643	     45.00000000	    -45.00000000	  -2423.96722096	    -94.15347072	    135.22259320	   -127.83788544	    349.68572889	     48.54733354	     10.56772492	    -15.84434242
      3.96000000	     27.77076097	     34.14291760	     44.82928472	     77.07860508	    770.53221492	    -42.41901633	     12.55796612	     36.36914519	     27.89890291	     45.00000000	    -45.00000000	  -3317.99430591	  -3169.02447297	     22.31536258	    179.99999979	   1804.90018157	   -174.36426718	     12.69178155	     12.03054036	    -15.34958996	    -45.00000000	    -33.52608525	     45.00000000	    -45.00000000	  -2424.08995900	    -94.11674432	    135.62507811	   -127.81925716	    350.00414501	     48.85682878	     11.26212754	    -16.00077066
      3.97000000	     28.04905463	     34.01796058	     44.39699402	     74.98307124	    770.14904902	    -42.48238798	     12.36543107	     36.30216105	     27.95985582	     45.00000000	    -45.00000000	  -3318.13991307	  -3168.96506029	     22.36248959	    179.99999979	   1804.94709365	   -174.04480301	     12.79382064	     11.94775191	    -15.26509149	    -45.00000000	    -33.48094528	     45.00000000	    -45.00000000	  -2423.84292365	    -94.04929273	    135.47094100	   -127.99558599	    349.92215206	     49.10015782	     10.74498515	    -16.07875727
      3.98000000	     28.22390799	     33.99796586	     44.01908367	     72.74542799	    769.78279936	    -42.54606228	     12.40774020	     36.34528047	     27.81157927	     45.00000000	    -45.00000000	  -3318.21287911	  -3168.82648300	     22.39825681	    179.99999979	   1805.05784758	   -173.71776226	     12.73273591	     11.93966483	    -15.22668210	    -45.00000000	    -33.56119104	     45.00000000	    -45.00000000	  -2423.79013405	    -93.94187953	    135.51488186	   -128.14672454	    350.05147737	     49.34418374	     10.99934049	    -16.12050797
      3.99000000	     28.37135125	     33.97765719	     43.71633940	     70.37396686	    769.43385532	    -42.60151101	     12.37719925	     36.27180207	     27.71505104	     45.00000000	    -45.00000000	  -3318.33516052	  -3168.74489654	     22.40766390	    179.99999979	   1805.11479914	   -173.41054347	     12.78137180	     11.90100666	    -15.14456248	    -45.00000000	    -33.60930484	     45.00000000	    -45.00000000	  -2423.59608274	    -93.88206211	    135.48593514	   -128.43334102	    350.03646657	     49.53030716	     10.75301816	    -16.19084044
      4.00000000	     28.52928129	     33.92509329	     43.36070129	     67.90264268	    769.09659623	    -42.63798058	     12.35550857	     36.28740902	     27.63263343	     45.00000000	    -45.00000000	  -3318.44436526	  -3168.64758647	     22.41389871	    179.99999979	   1805.16170391	   -173.09431834	     12.78222072	     11.89283491	    -15.07536271	    -45.00000000	    -33.69519026	     45.00000000	    -45.00000000	  -2423.49309539	    -93.79229808	    135.52625870	   -128.64613912	    350.12000176	     49.68442489	     10.87205125	    -16.21221632
      4.01000000	     28.65549353	     33.90496930	     43.06775593	     65.34462522	    768.77328863	    -42.64936398	     12.35063574	     36.23489582	     27.52546986	     45.00000000	    -45.00000000	  -3318.57462633	  -3168.54216454	     22.39893664	    179.99999979	   1805.20405072	   -172.78438703	     12.81742578	     11.87323532	    -14.99112475	    -45.00000000	    -33.77532492	     45.00000000	    -45.00000000	  -2423.32823648	    -93.70965900	    135.55077533	   -128.88309896	    350.13974009	     49.78445701	     10.77079237	    -16.25214763
      4.02000000	     28.84720784	     33.81003275	     42.68139635	     62.72424817	    768.45976610	    -42.63870427	     12.25819507	     36.26846720	     27.44869080	     45.00000000	    -45.00000000	  -3318.67500772	  -3168.46576755	     22.44003701	    179.99999979	   1805.31590709	   -172.48205143	     12.80890567	     11.88496867	    -14.93150538	    -45.00000000	    -33.81283494	     45.00000000	    -45.00000000	  -2423.15888458	    -93.62538400	    135.51880326	   -129.12907398	    350.17719976	     49.84921561	     10.82375328	    -16.26183576
      4.03000000	     28.95928565	     33.72076344	     42.36087702	     60.03900031	    768.16082914	    -42.61557871	     12.27933662	     36.19772094	     27.31781195	     45.00000000	    -45.00000000	  -3318.74918243	  -3168.35130212	     22.48936033	    179.99999979	   1805.42782800	   -172.21003382	     12.79979562	     11.88236859	    -14.86463836	    -45.00000000	    -33.83874191	     45.00000000	    -45.00000000	  -2422.99751828	    -93.52610646	    135.53287014	   -129.39209136	    350.16894692	     49.87767021	     10.78676245	    -16.26446956
      4.04000000	     29.09357473	     33.66439428	     42.03465014	     57.28150378	    767.88088318	    -42.59744596	     12.22552808	     36.21738421	     27.21087330	     45.00000000	    -45.00000000	  -3318.86476311	  -3168.25256051	     22.43833275	    179.99999979	   1805.45018033	   -171.94382381	     12.81721070	     11.86941637	    -14.76813889	    -45.00000000	    -33.95061405	     45.00000000	    -45.00000000	  -2422.88453763	    -93.46147616	    135.59616558	   -129.60053239	    350.25368793	     49.86922585	     10.81457918	    -16.27191780
      4.05000000	     29.21270631	     33.58985115	     41.75382315	     54.44420235	    767.63161137	    -42.59554563	     12.20909311	     36.16086192	     27.08682350	     45.00000000	    -45.00000000	  -3318.96940029	  -3168.19710207	     22.44218939	    179.99999979	   1805.51080777	   -171.70288419	     12.81748756	     11.87858869	    -14.69159910	    -45.00000000	    -34.01788426	     45.00000000	    -45.00000000	  -2422.69237736	    -93.39085983	    135.61602714	   -129.84827942	    350.25489842	     49.84674238	     10.79322434	    -16.26330509
      4.06000000	     29.35435265	     33.48231887	     41.42251412	     51.52392957	    767.41711131	    -42.61558948	     12.16793027	     36.15273856	     26.97121829	     45.00000000	    -45.00000000	  -3319.06230658	  -3168.11625486	     22.44055337	    179.99999979	   1805.57455845	   -171.49677378	     12.80519487	     11.89047427	    -14.60633970	    -45.00000000	    -34.07211878	     45.00000000	    -45.00000000	  -2422.55287545	    -93.30693306	    135.64964946	   -130.06769629	    350.27355002	     49.81381749	     10.83046031	    -16.26343538
